**ABCDEFGHIJKLMNOPQRSTUVWXYZabcdefghijklmnopqrstuvwxyz**************************
**PARASOLID !"#%&'()*+,-./:;<=>?@[\]^_`{|}~0123456789***************************
**PART1;
MC=unknown;
MC_MODEL=unknown;
MC_ID=unknown;
OS=Windows 95;
OS_RELEASE=unknown;
FRU=CNC Software, Inc.;
APPL=Mastercam;
SITE=unknown;
USER=unknown;
FORMAT=text;
GUISE=transmit;
KEY=MICROSERVO9G;
FILE=MICROSERVO9G.X_T;
DATE=Tue Sep 10 17:53:39 2019;
**PART2;
SCH=SCH_2301148_20000;
USFLD_SIZE=1;
**PART3;
**END_OF_HEADER*****************************************************************
T51 : TRANSMIT FILE created by modeller version 230114817 SCH_2300000_200001 12
 1 1493 0 2 0 0 0 0 1e3 1e-8 0 3 0 1 0 1 1 4 5 6 7 8 9 10 0 0 0 0 0 70 2 0 4 T1
 0 0 1 20 1 11 11 0 13 4 76 0 1 0 12 0 0 13 0 0 54 5 1149 0 14 15 0 0 +.0107696
 0 .0039116 0 0 1 .002286 508e-6 1 0 0 0 31 6 1153 0 16 17 0 0 +.0107696 -.00228
6 .0039116 1 0 0 0 0 -1 508e-6 0 29 7 1232 0 10 18 0 .022606 .000816428571428571
 -.0167005925752379 0 19 8 1 0 1 13 0 19 V0 16 9 1105 0 ?20 0 21 22 0 0 1 0 18 1
0 1230 0 23 0 24 7 ?1 0 17 23 0 25 26 27 10 28 29 0 30 +0 18 24 1226 0 26 10 31
 18 ?1 0 17 26 0 25 32 23 24 33 34 0 35 -0 18 31 1222 0 32 24 36 37 ?1 0 29 18 1
228 0 24 37 7 .022606 .000816428571428576 -.0175894074247621 0 29 37 1224 0 31 3
8 18 .022606 .000453571428571431 -.0175894074247621 0 29 38 1220 0 36 39 37 .022
606 -.000453571428571428 -.0175894074247621 0 18 36 1218 0 40 31 41 38 ?1 0 29 3
9 1216 0 41 42 38 .022606 -.000816428571428568 -.0175894074247621 0 18 41 1214 0
 43 36 44 39 ?1 0 29 42 1212 0 44 45 39 .022606 -.000816428571428572 -.016700592
5752379 0 18 44 1210 0 46 41 47 42 ?1 0 29 45 1205 0 47 48 42 .022606 .000453571
428571429 -.0167005925752379 0 18 47 1203 0 27 44 49 45 ?1 0 29 48 1099 0 49 50
 45 .0107696 -.002794 .0039116 0 18 49 1096 0 51 47 52 48 ?1 0 29 50 1090 0 52 5
3 48 .0107696 .002794 .0039116 0 18 52 1087 0 20 49 54 50 ?1 0 29 53 1081 0 54 5
5 50 .01163345149131206 -.002794 .0039116 0 18 54 1078 0 56 52 57 53 ?1 0 29 55
 1077 0 57 58 53 .01163345149131206 .002794 .0039116 0 18 57 1074 0 59 54 60 55
 ?1 0 29 58 1067 0 60 61 55 .0119446888459034 .002286 .0044196 0 18 60 1065 0 62
 57 63 58 ?1 0 29 61 1063 0 63 64 58 .0119446888459034 -.002286 .0044196 0 18 63
 1061 0 65 60 66 61 ?1 0 29 64 1059 0 66 67 61 .0107696 -.002286 .0044196 0 18 6
6 1057 0 68 63 69 64 ?1 0 29 67 1056 0 69 70 64 .0107696 .002286 .0044196 0 18 6
9 1054 0 71 66 72 67 ?1 0 29 70 893 0 72 73 67 -.0049784 .0050038 -.0044196 0 18
 72 890 0 74 69 75 70 ?1 0 29 73 889 0 75 76 70 -.0049784 -.0050038 -.0044196 0
 18 75 886 0 77 72 78 73 ?1 0 29 76 875 0 78 79 73 -.0049784 .0050038 -.0069088
 0 18 78 872 0 80 75 81 76 ?1 0 29 79 871 0 81 82 76 -.0049784 -.0050038 -.00690
88 0 18 81 868 0 83 78 84 79 ?1 0 29 82 857 0 84 85 79 -.0038862 -.006096 -.0069
088 0 18 84 853 0 86 81 87 82 ?1 0 29 85 852 0 87 88 82 -.0038862 -.006096 -.004
4196 0 18 87 848 0 89 84 90 85 ?1 0 29 88 837 0 90 91 85 .0264922 -.006096 -.004
4196 0 18 90 833 0 92 87 93 88 ?1 0 29 91 822 0 93 94 88 .0275844 -.0050038 -.00
44196 0 18 93 819 0 95 90 96 91 ?1 0 29 94 818 0 96 97 91 .0275844 .0050038 -.00
44196 0 18 96 815 0 98 93 99 94 ?1 0 29 97 804 0 99 100 94 .0264922 -.006096 -.0
069088 0 18 99 800 0 101 96 102 97 ?1 0 29 100 799 0 102 103 97 .0275844 -.00500
38 -.0069088 0 18 102 796 0 104 99 105 100 ?1 0 29 103 795 0 105 106 100 .027584
4 .0050038 -.0069088 0 18 105 792 0 107 102 108 103 ?1 0 29 106 781 0 108 109 10
3 -.0038862 .006096 -.0044196 0 18 108 777 0 110 105 111 106 ?1 0 29 109 776 0 1
11 112 106 -.0038862 .006096 -.0069088 0 18 111 772 0 113 108 114 109 ?1 0 29 11
2 771 0 114 115 109 .0264922 .006096 -.0069088 0 18 114 767 0 116 111 117 112 ?1
 0 29 115 766 0 117 118 112 .0264922 .006096 -.0044196 0 18 117 762 0 119 114 12
0 115 ?1 0 29 118 475 0 120 121 115 .01163345149131206 .002794 0 0 18 120 473 0
 122 117 123 118 ?1 0 29 121 290 0 123 124 118 .022606 -.006096 -.0069088 0 18 1
23 287 0 125 120 126 121 1e-8 1 0 29 124 129 0 126 127 121 0 -.006096 -.0044196
 0 18 126 125 0 128 123 129 124 1e-8 1 0 29 127 122 0 129 130 124 0 -.006096 -.0
069088 0 18 129 119 0 131 126 132 127 1e-8 1 0 29 130 111 0 132 133 127 0 .00609
6 -.0069088 0 18 132 108 0 134 129 135 130 1e-8 1 0 29 133 52 0 136 137 130 .022
606 -.006096 0 0 18 136 43 0 138 139 140 133 ?1 0 29 137 53 0 140 141 133 0 -.00
6096 0 0 18 140 44 0 142 136 143 137 ?1 0 29 141 54 0 143 144 137 .022606 .00609
6 0 0 18 143 45 0 145 140 146 141 ?1 0 29 144 55 0 146 147 141 0 .006096 0 0 18
 146 46 0 148 143 149 144 ?1 0 29 147 18 0 135 150 144 .022606 -.006096 -.022275
8 0 18 135 15 0 151 132 152 147 ?1 0 29 150 13 0 152 153 147 0 -.006096 -.022275
8 0 18 152 10 0 154 135 155 150 ?1 0 29 153 8 0 155 156 150 .022606 .006096 -.02
22758 0 18 155 5 0 157 152 139 153 ?1 0 29 156 4 0 139 158 153 0 .006096 -.02227
58 0 18 139 2 0 159 155 136 156 ?1 0 29 158 236 0 149 160 156 0 .006096 -.004419
6 0 18 149 177 0 161 146 162 158 1e-8 1 0 29 160 412 0 162 163 158 .022606 -.006
096 -.0044196 0 18 162 358 0 164 149 165 160 1e-8 1 0 29 163 414 0 165 166 160 .
022606 .006096 -.0069088 0 18 165 362 0 167 162 168 163 1e-8 1 0 29 166 415 0 16
8 169 163 .022606 .006096 -.0044196 0 18 168 356 0 170 165 171 166 1e-8 1 0 29 1
69 580 0 171 172 166 .022606 0 0 0 18 171 535 0 173 168 174 169 ?1 0 29 172 581
 0 174 175 169 .01163345149131206 -.002794 0 0 18 174 531 0 176 171 177 172 ?1 0
 29 175 582 0 177 178 172 .0107696 -.002794 0 0 18 177 529 0 179 174 180 175 ?1
 0 29 178 584 0 180 181 175 .0107696 .002794 0 0 18 180 530 0 182 177 183 178 ?1
 0 29 181 1405 0 184 185 178 .022606 -.000453571428571428 -.0167005925752379 0 1
8 184 1325 0 186 187 0 181 ?1 0 29 185 1412 0 183 188 181 .0305435 .000453571428
571428 -.0167005925752379 0 18 183 1312 0 189 180 190 185 ?1 0 29 188 1413 0 190
 191 185 .0305435 -.000453571428571429 -.0167005925752379 0 18 190 1326 0 192 18
3 193 188 ?1 0 29 191 1414 0 193 194 188 .0305435 -.000816428571428572 -.0167005
925752379 0 18 193 1324 0 195 190 196 191 ?1 0 29 194 1415 0 196 197 191 .030543
5 -.000816428571428572 -.0175894074247621 0 18 196 1322 0 198 193 199 194 ?1 0 2
9 197 1416 0 199 200 194 .0305435 -.00045357142857143 -.0175894074247621 0 18 19
9 1320 0 201 196 202 197 ?1 0 29 200 1417 0 202 203 197 .0305435 .00045357142857
1428 -.0175894074247621 0 18 202 1318 0 204 199 205 200 ?1 0 29 203 1418 0 205 2
06 200 .0305435 .000816428571428571 -.0167005925752379 0 18 205 1314 0 207 202 1
87 203 ?1 0 29 206 1419 0 187 0 203 .0305435 .000816428571428571 -.0175894074247
621 0 18 187 1316 0 208 205 184 206 ?1 0 17 208 0 209 210 211 187 35 212 0 213 -
0 15 209 1339 0 211 214 0 0 17 210 0 209 215 208 202 216 217 0 218 -0 17 211 0 2
09 208 215 24 32 219 0 0 +0 17 35 0 220 33 213 24 208 212 0 211 +0 16 212 1249 0
 ?35 221 222 223 0 0 1 0 17 213 0 220 35 207 187 224 225 0 216 -0 15 220 1335 0
 33 226 0 0 17 207 0 220 213 33 205 30 221 0 224 -0 17 224 0 227 228 216 205 213
 225 0 229 +0 16 225 1300 0 ?224 217 230 231 0 0 1 0 17 216 0 227 224 218 187 21
0 217 0 0 +0 15 227 1363 0 228 232 0 0 17 218 0 227 216 233 202 234 235 0 0 -0 1
6 217 1297 0 ?216 235 225 236 0 0 1 0 16 235 1258 0 ?234 237 217 238 0 0 1 0 31
 236 1402 0 217 231 238 0 +.0305435 635e-6 -.0177671703946669 -1 612323399573677
e-31 -612323399573677e-31 612323399573677e-31 1 0 254e-6 0 31 231 1403 0 225 0 2
36 0 +.0305435 .00127 -.017145 1 -612323399573677e-31 612323399573677e-31 612323
399573677e-31 1 0 635e-6 0 31 238 1401 0 235 236 239 0 +.0305435 -76870056824258
7e-33 -.017145 -1 612323399573677e-31 -612323399573677e-31 612323399573677e-31 1
 0 635e-6 0 31 239 1400 0 237 238 240 0 +.0305435 -635e-6 -.0177671703946669 -1
 612323399573677e-31 -612323399573677e-31 612323399573677e-31 1 0 254e-6 0 16 23
7 1294 0 ?233 241 235 239 0 0 1 0 31 240 1399 0 241 239 242 0 +.0305435 -.00127
 -.017145 1 -612323399573677e-31 612323399573677e-31 612323399573677e-31 1 0 635
e-6 0 16 241 1291 0 ?243 244 237 240 0 0 1 0 31 242 1398 0 244 240 245 0 +.03054
35 -635e-6 -.0165228296053331 1 -612323399573677e-31 612323399573677e-31 6123233
99573677e-31 1 0 254e-6 0 16 244 1276 0 ?246 247 241 242 0 0 1 0 31 245 1397 0 2
47 242 248 0 +.0305435 -46026673421391e-32 -.017145 1 -612323399573677e-31 61232
3399573677e-31 612323399573677e-31 1 0 635e-6 0 16 247 1288 0 ?249 250 244 245 0
 0 1 0 31 248 1396 0 230 245 251 0 +.0305435 635e-6 -.01652282960533305 1 -61232
3399573677e-31 612323399573677e-31 612323399573677e-31 1 0 254e-6 0 16 230 1240
 0 ?229 225 252 248 0 0 1 0 31 251 1395 0 34 248 253 0 +.022606 .00127 -.017145
 1 -612323399573677e-31 612323399573677e-31 612323399573677e-31 1 0 635e-6 0 16
 34 1246 0 ?33 219 29 251 0 0 1 0 31 253 1394 0 219 251 254 0 +.022606 635e-6 -.
0177671703946669 -1 612323399573677e-31 -612323399573677e-31 612323399573677e-31
 1 0 254e-6 0 16 219 1252 0 ?211 255 34 253 0 0 1 0 31 254 1393 0 255 253 256 0
 +.022606 -282668869830981e-33 -.017145 -1 612323399573677e-31 -612323399573677e
-31 612323399573677e-31 1 0 635e-6 0 16 255 1306 0 ?40 257 219 254 0 0 1 0 31 25
6 1392 0 257 254 258 0 +.022606 -635e-6 -.0177671703946669 -1 612323399573677e-3
1 -612323399573677e-31 612323399573677e-31 1 0 254e-6 0 16 257 1264 0 ?259 260 2
55 256 0 0 1 0 31 258 1391 0 260 256 261 0 +.022606 -.00127 -.017145 1 -61232339
9573677e-31 612323399573677e-31 612323399573677e-31 1 0 635e-6 0 16 260 1270 0 ?
262 263 257 258 0 0 1 0 31 261 1390 0 263 258 264 0 +.022606 -635e-6 -.016522829
6053331 1 -612323399573677e-31 612323399573677e-31 612323399573677e-31 1 0 254e-
6 0 16 263 1309 0 ?186 252 260 261 0 0 1 0 31 264 1389 0 252 261 265 0 +.022606
 257649641976954e-34 -.017145 1 -612323399573677e-31 612323399573677e-31 6123233
99573677e-31 1 0 635e-6 0 16 252 1282 0 ?266 230 263 264 0 0 1 0 31 265 1388 0 2
9 264 267 0 +.022606 635e-6 -.01652282960533305 1 -612323399573677e-31 612323399
573677e-31 612323399573677e-31 1 0 254e-6 0 16 29 1303 0 ?23 34 0 265 0 0 1 0 30
 267 1387 0 250 265 268 0 +.0305435 .000453571428571428 -.0167005925752379 -1 61
2323399573677e-31 -612323399573677e-31 0 16 250 1285 0 ?269 270 247 267 0 0 1 0
 30 268 1386 0 270 267 271 0 +.0305435 -.000453571428571429 -.0167005925752379 -
1 612323399573677e-31 -612323399573677e-31 0 16 270 1279 0 ?272 273 250 268 0 0
 1 0 30 271 1385 0 273 268 274 0 +.0305435 -.000816428571428572 -.01670059257523
79 -1 612323399573677e-31 -612323399573677e-31 0 16 273 1273 0 ?275 276 270 271
 0 0 1 0 30 274 1384 0 276 271 277 0 +.0305435 -.000816428571428572 -.0175894074
247621 -1 612323399573677e-31 -612323399573677e-31 0 16 276 1267 0 ?278 279 273
 274 0 0 1 0 30 277 1383 0 279 274 280 0 +.0305435 -.00045357142857143 -.0175894
074247621 -1 612323399573677e-31 -612323399573677e-31 0 16 279 1261 0 ?281 222 2
76 277 0 0 1 0 30 280 1382 0 222 277 282 0 +.0305435 .000453571428571428 -.01758
94074247621 -1 612323399573677e-31 -612323399573677e-31 0 16 222 1255 0 ?215 212
 279 280 0 0 1 0 30 282 1381 0 221 280 223 0 +.0305435 .000816428571428571 -.016
7005925752379 -1 612323399573677e-31 -612323399573677e-31 0 16 221 1243 0 ?30 28
3 212 282 0 0 1 0 30 223 1380 0 212 282 284 0 +.0305435 .000816428571428571 -.01
75894074247621 -1 612323399573677e-31 -612323399573677e-31 0 31 284 751 0 285 22
3 286 0 +.02630297 0 -.0044196 0 0 1 1 0 0 .0010795 0 16 285 725 0 ?287 288 16 2
84 0 0 1 0 31 286 701 0 289 284 290 0 +-.00369697 0 -.0044196 0 0 1 1 0 0 .00107
95 0 16 289 674 0 ?291 292 288 286 0 0 1 0 31 290 700 0 292 286 293 0 +-.0036969
7 0 -.0069088 0 0 1 1 0 0 .0010795 0 16 292 670 0 ?294 295 289 290 0 0 1 0 31 29
3 652 0 295 290 296 0 +.016764 0 .0074676 0 0 1 1 0 0 .002413 0 16 295 625 0 ?29
7 298 292 293 0 0 1 0 30 296 575 0 299 293 300 0 +.0107696 .002794 0 1 0 0 0 16
 299 524 0 ?301 302 303 296 0 0 1 0 31 300 574 0 302 296 304 0 +.0107696 0 0 0 0
 1 1 0 0 .002794 0 16 302 503 0 ?305 306 299 300 0 0 1 0 30 304 573 0 306 300 30
7 0 +.0107696 -.002794 0 1 0 0 0 16 306 509 0 ?308 309 302 304 0 0 1 0 31 307 57
2 0 303 304 310 0 +.016764 0 0 0 0 1 1 0 0 .005842 0 16 303 488 0 ?173 299 298 3
07 311 311 1 0 30 310 571 0 309 307 312 0 +.01163345149131206 -.002794 .0044196
 0 0 -1 0 16 309 1079 0 ?176 313 306 310 0 0 1 0 30 312 570 0 313 310 314 0 +.01
07696 -.002794 .0044196 0 0 -1 0 16 313 1097 0 ?179 315 309 312 0 0 1 0 30 314 5
69 0 316 312 317 0 +.01163345149131206 .002794 .0044196 0 0 -1 0 16 316 1075 0 ?
122 318 315 314 0 0 1 0 30 317 568 0 315 314 319 0 +.0107696 .002794 .0044196 0
 0 -1 0 16 315 1088 0 ?182 316 313 317 0 0 1 0 30 319 406 0 1 317 320 321 +.0226
06 .006096 -.0069088 0 -1 0 0 30 320 404 0 1 319 322 323 +.022606 .006096 -.0044
196 0 -1 0 0 141 321 324 321 321 319 0 133 324 417 0 325 326 327 0 +319 .022606
 .006096 -.0069088 .022606 -.006096 -.0069088 0 .012192 0 16 325 347 0 ?328 329
 330 324 0 0 1 0 133 326 307 0 331 332 324 0 +333 .022606 .006096 -.0044196 .022
606 .006096 0 .0178562 .0222758 0 133 327 420 0 334 324 335 0 +335 .022606 -.006
096 -.0069088 .0264922 -.006096 -.0069088 0 .0038862 0 16 334 329 0 ?336 337 338
 327 0 0 1 0 30 335 421 0 1 327 339 340 +.022606 -.006096 -.0069088 1 0 0 0 133
 339 422 0 338 335 341 0 +341 .022606 .006096 -.0069088 .0264922 .006096 -.00690
88 0 .0038862 0 141 340 327 340 340 335 0 16 338 335 0 ?342 334 329 339 0 0 1 0
 30 341 423 0 1 339 343 344 +.022606 .006096 -.0069088 1 0 0 0 133 343 427 0 329
 341 345 0 +345 .022606 .006096 -.0044196 .0264922 .006096 -.0044196 0 .0038862
 0 141 344 339 344 344 341 0 16 329 341 0 ?346 338 325 343 0 0 1 0 30 345 428 0
 1 343 347 348 +.022606 .006096 -.0044196 1 0 0 0 133 347 429 0 330 345 349 0 +3
20 .022606 .006096 -.0044196 .022606 -.006096 -.0044196 0 .012192 0 141 348 343
 348 348 345 0 16 330 320 0 ?350 325 351 347 0 0 1 0 133 349 430 0 337 347 352 0
 +352 .022606 -.006096 -.0044196 .0264922 -.006096 -.0044196 0 .0038862 0 16 337
 323 0 ?353 354 334 349 0 0 1 0 30 352 431 0 1 349 355 356 +.022606 -.006096 -.0
044196 1 0 0 0 31 355 617 0 298 352 357 0 -.016764 0 .0044196 0 0 1 1 0 0 .00241
3 0 141 356 349 356 356 352 0 16 298 624 0 ?358 303 295 355 0 0 1 0 31 357 711 0
 288 355 359 0 +.02630297 0 -.0069088 0 0 1 1 0 0 .0010795 0 16 288 721 0 ?360 2
89 285 357 0 0 1 0 30 359 784 0 361 357 362 0 --.0038862 .006096 -.0044196 0 0 -
1 0 16 361 782 0 ?110 363 311 359 0 0 1 0 30 362 789 0 363 359 364 0 +.0264922 .
006096 -.0069088 0 0 -1 0 16 363 787 0 ?365 366 361 362 0 0 1 0 31 364 807 0 366
 362 367 0 -.0264922 -.0050038 -.0069088 0 0 1 1 0 0 .0010922 0 16 366 805 0 ?10
1 368 363 364 0 0 1 0 31 367 812 0 368 364 369 0 -.0264922 .0050038 -.0069088 0
 0 1 1 0 0 .0010922 0 16 368 810 0 ?107 370 366 367 0 0 1 0 30 369 825 0 370 367
 371 0 +.0275844 -.0050038 -.0069088 0 0 -1 0 16 370 823 0 ?372 373 368 369 0 0
 1 0 30 371 830 0 373 369 374 0 -.0275844 .0050038 -.0044196 0 0 -1 0 16 373 828
 0 ?98 375 370 371 0 0 1 0 31 374 840 0 375 371 376 0 +.0264922 -.0050038 -.0044
196 0 0 1 1 0 0 .0010922 0 16 375 838 0 ?95 377 373 374 0 0 1 0 31 376 845 0 377
 374 378 0 +.0264922 .0050038 -.0044196 0 0 1 1 0 0 .0010922 0 16 377 843 0 ?119
 379 375 376 0 0 1 0 30 378 860 0 379 376 380 0 +-.0038862 -.006096 -.0069088 0
 0 -1 0 16 379 858 0 ?381 382 377 378 0 0 1 0 30 380 865 0 382 378 383 0 -.02649
22 -.006096 -.0044196 0 0 -1 0 16 382 863 0 ?92 384 379 380 0 0 1 0 31 383 878 0
 384 380 385 0 --.0038862 .0050038 -.0069088 0 0 1 1 0 0 .0010922 0 16 384 876 0
 ?113 386 382 383 0 0 1 0 31 385 883 0 386 383 387 0 --.0038862 -.0050038 -.0069
088 0 0 1 1 0 0 .0010922 0 16 386 881 0 ?83 388 384 385 0 0 1 0 30 387 896 0 388
 385 389 0 +-.0049784 .0050038 -.0069088 0 0 -1 0 16 388 894 0 ?390 391 386 387
 0 0 1 0 30 389 901 0 391 387 392 0 --.0049784 -.0050038 -.0044196 0 0 -1 0 16 3
91 899 0 ?77 393 388 389 0 0 1 0 31 392 906 0 393 389 394 0 +-.0038862 .0050038
 -.0044196 0 0 1 1 0 0 .0010922 0 16 393 904 0 ?74 395 391 392 0 0 1 0 31 394 91
1 0 395 392 396 0 +-.0038862 -.0050038 -.0044196 0 0 1 1 0 0 .0010922 0 16 395 9
09 0 ?89 397 393 394 0 0 1 0 31 396 1060 0 397 394 398 0 +.0107696 0 .0044196 0
 0 1 1 0 0 .002286 0 16 397 1058 0 ?68 399 395 396 0 0 1 0 30 398 1064 0 399 396
 400 0 +.01163345149131206 -.002286 .0044196 1 0 0 0 16 399 1062 0 ?65 401 397 3
98 0 0 1 0 30 400 1068 0 401 398 402 0 -.016764 .002286 .0044196 1 0 0 0 16 401
 1066 0 ?71 403 399 400 0 0 1 0 31 402 1071 0 403 400 404 0 +.016764 0 .0044196
 0 0 1 1 0 0 .005334 0 16 403 1069 0 ?405 406 401 402 0 0 1 0 31 404 1084 0 406
 402 407 0 -.016764 0 .0039116 0 0 1 1 0 0 .005842 0 16 406 1082 0 ?408 409 403
 404 0 0 1 0 30 407 1093 0 409 404 410 0 +.0107696 .002794 .0039116 1 0 0 0 16 4
09 1091 0 ?59 21 406 407 0 0 1 0 30 410 1102 0 21 407 22 0 -.0107696 -.002794 .0
039116 1 0 0 0 16 21 1100 0 ?51 9 409 410 0 0 1 0 31 22 1107 0 9 410 411 0 -.010
7696 0 .0039116 0 0 1 1 0 0 .002794 0 38 411 1156 0 283 22 412 0 +413 414 415 41
6 417 0 16 283 1140 0 ?62 418 221 411 0 0 1 0 38 412 1155 0 418 411 17 0 -414 15
 419 420 421 0 51 413 1152 0 422 423 414 424 +.0107696 .002286 .0039116 1 0 0 50
8e-6 0 0 -1 0 54 414 1151 0 425 413 15 426 +.016764 0 .0039116 0 0 1 .005334 508
e-6 1 0 0 0 40 6 415 0 1 6 3302557682144385e-20 .3466901948437545 ??.01163345149
131206 .002794 .0039116 .01164703456937432 .002771166538421645 .0040621902719167
35 .01168521211067926 .002707313389880425 .00419542922243396 .01174577604157444
 .00260699929411358 .00430533017814054 .01183105834683606 .002467783686601025 .0
04385961350961205 .01194215441592026 .00229000833927088 .00441958418599312 0 41
 1 416 L.01163345149131206 .002794 .0039116 0 41 2 417 T.0119446888459034 .00228
6 .0044196 .01194215441592026 .00229000833927088 .00441958418599312 0 14 425 112
5 427 ?428 422 429 4 414 +0 0 428 422 19 0 51 15 1150 0 430 414 5 431 +.016764 -
.002286 .0039116 -1 0 0 508e-6 0 0 1 0 141 426 411 432 432 414 0 141 432 412 426
 426 414 0 14 430 1121 433 ?422 14 434 4 15 +0 0 422 14 19 0 141 431 412 431 431
 15 0 81 1 433 1482 435 430 0 0 436 437 438 0 14 422 1123 437 ?425 430 439 4 413
 +0 0 425 430 19 0 14 14 1119 436 ?430 440 441 4 5 +0 0 430 440 19 0 15 434 1122
 0 442 430 0 0 13 19 3 0 0 0 0 0 0 8 12 0 14 12 552 443 ?444 0 445 4 446 +0 0 44
4 0 19 0 81 1 443 1454 435 12 0 0 0 447 448 0 14 444 32 447 ?449 12 450 4 451 -0
 0 449 12 19 0 15 445 1055 0 65 12 452 0 50 446 567 0 12 453 454 0 +.016764 0 .0
044196 0 0 1 1 0 0 0 51 453 648 0 455 456 446 0 -.016764 0 .0074676 0 0 -1 .0024
13 -1 0 0 0 50 454 565 0 457 446 458 0 +.0107696 -.002794 .0044196 0 1 0 0 0 1 0
 14 457 548 459 ?455 460 461 4 454 -0 0 455 460 19 0 51 458 564 0 460 454 462 0
 -.0107696 0 .0044196 0 0 -1 .002794 -1 0 0 0 14 460 544 463 ?457 464 465 4 458
 -0 0 457 464 19 0 50 462 563 0 464 458 466 0 +.0107696 .002794 .0044196 0 1 0 0
 0 1 0 14 464 540 467 ?460 468 469 4 462 +0 0 460 468 19 0 51 466 562 0 468 462
 470 0 -.016764 0 .0044196 0 0 -1 .005842 -1 0 0 0 14 468 536 471 ?464 472 473 4
 466 -0 0 464 472 19 0 50 470 394 0 472 466 474 0 +.0275844 -.006096 -.0044196 1
 0 0 0 0 -1 0 14 472 384 475 ?468 476 477 4 470 +0 0 468 476 19 0 50 474 392 0 4
76 470 478 0 +.022606 .006096 -.0069088 0 0 1 1 0 0 0 14 476 372 479 ?472 480 48
1 4 474 -0 0 472 480 19 0 50 478 390 0 480 474 482 0 +.022606 .006096 -.0044196
 0 0 1 1 0 0 0 14 480 364 483 ?476 484 485 4 478 +0 0 476 484 19 0 50 482 215 0
 484 478 486 0 +-.0049784 .006096 -.0069088 -1 0 0 0 0 1 0 14 484 205 487 ?480 4
88 489 4 482 +0 0 480 488 19 0 50 486 213 0 488 482 490 0 +0 -.006096 -.0044196
 0 0 1 1 0 0 0 14 488 193 491 ?484 492 493 4 486 +0 0 484 492 19 0 50 490 211 0
 492 486 494 0 +0 -.006096 -.0069088 0 0 1 1 0 0 0 14 492 185 495 ?488 496 497 4
 490 -0 0 488 496 19 0 50 494 25 0 496 490 451 0 +.022606 -.006096 -.0222758 0 0
 -1 -1 0 0 0 14 496 23 498 ?492 499 500 4 494 +0 0 492 499 19 0 50 451 47 0 444
 494 501 0 +.022606 -.006096 0 0 0 -1 -1 0 0 0 50 501 72 0 499 451 502 0 +0 .006
096 -.0222758 0 -1 0 0 0 -1 0 14 499 61 503 ?496 504 505 4 501 -0 0 496 504 19 0
 50 502 73 0 504 501 506 0 +0 -.006096 -.0222758 1 0 0 0 0 -1 0 14 504 63 507 ?4
99 508 509 4 502 -510 510 499 508 19 0 50 506 74 0 508 502 511 0 +.022606 -.0060
96 -.0222758 0 1 0 0 0 1 0 14 508 65 512 ?504 513 514 4 506 -0 0 504 513 19 0 50
 511 75 0 513 506 515 0 +.022606 .006096 -.0222758 -1 0 0 0 0 1 0 14 513 67 516
 ?508 510 25 4 511 -449 449 508 510 19 0 51 515 941 0 517 511 518 0 +.0264922 .0
050038 -.0222758 0 0 1 .0010922 1 0 0 0 14 517 929 519 ?520 521 522 4 515 +0 0 5
20 521 19 0 51 518 962 0 520 515 523 0 +.0264922 -.0050038 -.0044196 0 0 1 .0010
922 1 0 0 0 14 520 950 524 ?525 517 526 4 518 +0 0 525 517 19 0 51 523 983 0 525
 518 423 0 +-.0038862 -.0050038 -.0222758 0 0 1 .0010922 1 0 0 0 14 525 971 527
 ?440 520 528 4 523 +0 0 440 520 19 0 51 423 1004 0 440 523 413 0 +-.0038862 .00
50038 -.0069088 0 0 1 .0010922 1 0 0 0 14 440 992 529 ?14 525 530 4 423 +0 0 14
 525 19 0 81 1 529 1480 435 440 0 0 527 436 531 0 15 530 993 0 532 440 0 0 17 53
2 0 530 533 534 108 74 393 0 0 -0 17 533 0 530 80 532 111 110 361 0 0 -0 17 534
 0 530 532 80 72 390 388 0 0 -0 17 74 0 535 536 537 72 532 393 0 538 +0 15 535 1
96 0 536 488 0 0 17 536 0 535 89 74 75 538 539 0 540 -0 17 537 0 535 74 541 108
 542 543 0 532 +0 17 538 0 489 390 77 72 536 539 0 534 +0 15 489 208 0 544 484 0
 0 17 390 0 489 544 538 78 534 388 0 545 +0 17 77 0 489 538 544 75 546 391 0 536
 +0 16 539 887 0 ?538 547 354 548 0 0 1 0 16 547 165 0 ?134 549 539 550 0 0 1 0
 16 354 869 0 ?545 539 337 551 0 0 1 0 30 548 223 0 539 552 551 0 +-.0049784 -.0
06096 -.0044196 0 1 0 0 30 552 225 0 1 553 548 554 +0 -.006096 -.0069088 0 1 0 0
 30 551 221 0 354 548 555 0 +-.0049784 -.006096 -.0069088 0 1 0 0 30 555 7 0 556
 551 557 0 +0 .006096 -.0222758 1 0 0 0 16 556 6 0 ?157 331 558 555 0 0 1 0 30 5
57 12 0 558 555 559 0 +0 -.006096 -.0222758 0 1 0 0 16 558 11 0 ?159 556 560 557
 0 0 1 0 30 559 17 0 560 557 561 0 +.022606 -.006096 -.0222758 -1 0 0 0 16 560 1
6 0 ?154 558 562 559 0 0 1 0 30 561 21 0 562 559 563 0 +.022606 .006096 -.022275
8 0 -1 0 0 16 562 20 0 ?564 560 565 561 0 0 1 0 30 563 51 0 565 561 566 0 +0 .00
6096 0 1 0 0 0 16 565 35 0 ?567 562 568 563 0 0 1 0 30 566 50 0 568 563 569 0 +0
 -.006096 0 0 1 0 0 16 568 37 0 ?570 565 571 566 0 0 1 0 30 569 49 0 571 566 572
 0 +.022606 -.006096 0 -1 0 0 0 16 571 39 0 ?573 568 574 569 0 0 1 0 30 572 48 0
 574 569 575 0 +.022606 .006096 0 0 -1 0 0 16 574 41 0 ?576 571 577 572 577 577
 1 0 30 575 68 0 1 572 578 579 +.022606 -.006096 -.0222758 0 0 1 0 30 578 69 0 1
 575 333 580 +0 -.006096 -.0222758 0 0 1 0 141 579 581 582 582 575 0 133 581 296
 0 583 584 332 0 +575 .022606 -.006096 -.0044196 .022606 -.006096 0 .0178562 .02
22758 0 141 582 584 579 579 575 0 133 584 292 0 585 586 581 0 +575 .022606 -.006
096 -.0222758 .022606 -.006096 -.0069088 0 .015367 0 16 585 56 0 ?587 311 583 58
4 0 0 1 0 30 586 252 0 1 588 584 589 +0 .006096 -.0069088 -1 0 0 0 133 588 251 0
 590 550 586 0 +586 0 .006096 -.0069088 -.0038862 .006096 -.0069088 0 .0038862 0
 141 589 588 589 589 586 0 16 590 150 0 ?591 577 543 588 0 0 1 0 133 550 250 0 5
47 592 588 0 +552 0 -.006096 -.0069088 0 .006096 -.0069088 -1734723475976805e-33
 .012192 0 30 592 249 0 1 593 550 594 +0 -.006096 -.0069088 -1 0 0 0 133 593 248
 0 595 596 592 0 +592 0 -.006096 -.0069088 -.0038862 -.006096 -.0069088 0 .00388
62 0 141 594 593 594 594 592 0 16 595 144 0 ?597 598 549 593 0 0 1 0 30 596 244
 0 1 599 593 600 +0 -.006096 -.0044196 -1 0 0 0 133 599 243 0 598 601 596 0 +596
 0 -.006096 -.0044196 -.0038862 -.006096 -.0044196 0 .0038862 0 141 600 599 600
 600 596 0 16 598 162 0 ?602 543 595 599 0 0 1 0 133 601 242 0 549 603 599 0 +55
3 0 -.006096 -.0044196 0 .006096 -.0044196 0 .012192 0 16 549 153 0 ?541 595 547
 601 0 0 1 0 30 603 239 0 1 604 601 605 +0 .006096 -.0044196 -1 0 0 0 30 553 227
 0 1 606 552 607 +0 -.006096 -.0044196 0 1 0 0 30 606 400 0 318 322 553 0 +.0275
844 .006096 -.0044196 0 -1 0 0 141 607 601 607 607 553 0 16 318 816 0 ?608 351 3
16 606 0 0 1 0 30 322 402 0 351 320 606 0 +.0275844 .006096 -.0069088 0 -1 0 0 1
6 351 793 0 ?609 330 318 322 0 0 1 0 17 609 0 610 101 107 102 611 351 0 0 +0 15
 610 375 0 342 476 0 0 17 101 0 610 125 609 99 104 366 0 336 +0 17 107 0 610 609
 342 105 116 368 0 611 +0 17 611 0 477 98 372 105 609 351 0 612 -0 15 477 387 0
 611 472 0 0 17 98 0 477 608 611 96 612 373 0 613 +0 17 372 0 477 611 608 102 61
4 370 0 609 +0 17 612 0 522 116 615 105 98 373 0 0 -0 15 522 930 0 615 517 0 0 1
7 116 0 522 616 612 114 107 368 0 365 -0 17 615 0 522 612 616 96 119 377 0 0 -0
 17 616 0 522 615 116 117 365 363 0 0 -0 17 119 0 617 170 613 117 615 377 0 346
 +0 15 617 367 0 613 480 0 0 17 170 0 617 350 119 168 346 329 0 618 -0 17 613 0
 617 119 95 96 608 318 0 615 -0 17 346 0 505 365 619 117 170 329 0 616 +0 15 505
 60 0 346 499 0 0 17 365 0 505 167 346 114 616 363 0 342 +0 17 619 0 505 346 567
 168 145 331 0 0 -0 17 567 0 505 619 148 143 620 565 0 621 +0 17 145 0 622 576 6
18 143 619 331 0 567 +0 16 331 305 0 ?145 623 556 326 0 0 1 0 16 623 58 0 ?624 6
25 331 332 0 0 1 0 17 624 0 626 328 627 165 628 623 0 0 +0 16 625 115 0 ?148 629
 623 630 0 0 1 0 133 332 303 0 623 581 326 0 +333 .022606 .006096 -.0222758 .022
606 .006096 -.0069088 0 .015367 0 30 333 70 0 1 578 631 632 +.022606 .006096 -.0
222758 0 0 1 0 30 631 71 0 1 333 633 634 +0 .006096 -.0222758 0 0 1 0 141 632 32
6 635 635 333 0 141 635 332 632 632 333 0 133 633 113 0 629 631 630 0 +631 0 .00
6096 -.0222758 0 .006096 -.0069088 0 .015367 0 141 634 630 636 636 631 0 133 630
 117 0 625 633 637 0 +631 0 .006096 -.0044196 0 .006096 0 .0178562 .0222758 0 14
1 636 633 634 634 631 0 133 637 124 0 638 630 639 0 +578 0 -.006096 -.0222758 0
 -.006096 -.0069088 0 .015367 0 16 638 57 0 ?131 583 640 637 0 0 1 0 133 639 128
 0 640 637 604 0 +578 0 -.006096 -.0044196 0 -.006096 0 .0178562 .0222758 0 16 6
40 126 0 ?142 638 629 639 0 0 1 0 133 604 238 0 543 639 603 0 +603 0 .006096 -.0
044196 -.0038862 .006096 -.0044196 0 .0038862 0 16 543 156 0 ?537 590 598 604 0
 0 1 0 17 142 0 641 570 128 140 642 640 0 573 +0 16 629 59 0 ?643 640 625 633 0
 0 1 0 17 643 0 505 591 644 132 645 629 0 646 +0 17 591 0 505 110 643 111 646 59
0 0 533 +0 17 644 0 505 643 628 139 157 556 0 0 -0 17 645 0 509 647 134 139 643
 629 0 644 -0 17 646 0 648 649 113 132 591 590 0 0 -0 15 648 188 0 597 492 0 0 1
7 649 0 648 597 646 129 134 547 0 0 -0 17 113 0 648 646 545 111 80 384 0 591 +0
 17 545 0 648 113 83 78 544 354 0 0 +0 17 80 0 530 534 533 78 113 384 0 390 -0 1
7 83 0 648 545 597 81 86 386 0 544 +0 17 544 0 489 77 390 81 545 354 0 546 -0 17
 546 0 528 86 540 81 77 391 0 0 -0 15 528 972 0 540 525 0 0 17 86 0 528 650 546
 84 83 386 0 381 -0 17 540 0 528 546 650 75 89 395 0 0 -0 17 650 0 528 540 86 87
 381 379 0 0 -0 17 89 0 535 651 536 87 540 395 0 602 +0 17 651 0 535 541 89 126
 602 598 0 0 -0 17 602 0 514 381 642 87 651 598 0 650 +0 15 514 64 0 336 508 0 0
 17 381 0 514 652 602 84 650 379 0 597 +0 17 642 0 514 602 573 126 142 640 0 651
 -0 17 573 0 514 642 653 140 654 571 0 655 +0 17 653 0 514 573 164 136 656 583 0
 654 +0 17 654 0 450 657 655 136 573 571 0 0 -0 17 655 0 450 654 620 140 570 568
 0 0 -0 15 450 484 0 658 444 0 0 17 620 0 450 655 621 146 567 565 0 0 -0 17 570
 0 641 161 142 146 655 568 0 620 +0 15 641 131 0 128 510 0 0 17 161 0 641 128 57
0 149 148 625 0 542 -0 17 128 0 641 142 161 126 541 549 0 642 -0 17 148 0 505 56
7 542 146 161 625 0 570 +0 17 542 0 505 148 110 149 537 543 0 541 -0 17 110 0 50
5 542 591 108 533 361 0 537 +0 17 541 0 535 537 651 149 128 549 0 0 +0 14 510 13
3 659 ?513 449 641 4 502 -504 504 513 449 19 0 81 1 659 1457 435 510 0 0 660 516
 661 0 14 449 317 660 ?510 444 622 4 511 -513 513 510 444 19 0 81 1 660 1456 435
 449 0 0 447 659 662 0 15 622 315 0 618 449 0 0 17 618 0 622 145 656 168 350 330
 0 619 -0 17 656 0 622 618 138 162 653 583 0 0 -0 17 350 0 617 353 170 162 618 3
30 0 656 +0 17 353 0 617 95 350 90 164 337 0 663 +0 17 95 0 617 613 353 93 663 3
75 0 608 +0 17 164 0 514 653 92 162 353 337 0 350 -0 17 663 0 526 664 614 90 95
 375 0 0 -0 15 526 951 0 663 520 0 0 17 664 0 526 104 663 99 92 382 0 0 -0 17 61
4 0 526 663 104 93 372 370 0 0 -0 17 104 0 526 614 664 102 101 366 0 372 -0 17 9
2 0 514 164 336 90 664 382 0 353 +0 17 336 0 514 92 587 99 125 334 0 664 +0 17 5
87 0 514 336 151 123 665 585 0 0 +0 17 125 0 610 666 101 123 336 334 0 328 -0 17
 666 0 610 342 125 165 328 325 0 624 -0 17 328 0 626 665 624 123 666 325 0 587 +
0 15 626 66 0 624 513 0 0 17 665 0 626 627 328 135 587 585 0 0 -0 17 627 0 626 6
24 665 155 564 562 0 0 -0 17 564 0 500 154 157 135 627 562 0 665 +0 15 500 22 0
 564 496 0 0 17 154 0 500 159 564 152 151 560 0 667 +0 17 157 0 500 564 159 155
 644 556 0 628 +0 17 159 0 500 157 154 139 647 558 0 645 +0 17 628 0 505 644 167
 155 624 623 0 627 -0 17 167 0 505 628 365 165 342 338 0 666 -0 17 342 0 610 107
 666 114 167 338 0 0 +0 17 647 0 509 131 645 152 159 558 0 0 -0 15 509 62 0 131
 504 0 0 17 131 0 509 134 647 129 667 638 0 652 +0 17 134 0 509 645 131 132 649
 547 0 643 +0 17 667 0 514 151 652 152 131 638 0 647 -0 17 652 0 514 667 381 129
 597 595 0 649 -0 17 597 0 648 83 649 84 652 595 0 0 +0 17 151 0 514 587 667 135
 154 560 0 564 -0 17 608 0 477 372 98 93 613 318 0 614 +0 17 138 0 622 656 576 1
36 657 577 0 653 +0 16 583 294 0 ?653 585 638 581 0 0 1 0 17 576 0 622 138 145 1
71 621 574 0 0 +0 17 657 0 450 658 654 171 138 577 0 576 -0 16 577 467 0 ?138 57
4 590 572 574 574 1 0 17 658 0 450 668 657 174 173 303 0 0 -0 17 668 0 450 669 6
58 177 308 306 0 0 -0 17 173 0 473 670 176 171 658 303 0 671 +0 15 473 539 0 672
 468 0 0 17 670 0 473 672 173 120 671 311 0 301 +0 17 176 0 473 173 408 174 673
 309 0 308 +0 17 671 0 450 621 301 171 670 311 0 657 -0 17 621 0 450 620 671 143
 576 574 0 0 -0 17 301 0 450 671 669 120 674 299 0 0 +0 16 311 482 0 ?670 361 58
5 307 303 303 1 0 17 669 0 450 301 668 180 305 302 0 0 -0 17 674 0 469 675 122 1
80 301 299 0 669 -0 15 469 543 0 675 464 0 0 17 675 0 469 59 674 52 182 315 0 67
6 -0 17 122 0 469 674 59 120 672 316 0 670 +0 17 59 0 469 122 675 57 677 409 0 6
72 +0 17 672 0 473 408 670 57 122 316 0 678 -0 17 408 0 473 176 672 54 678 406 0
 673 +0 17 678 0 429 62 56 57 408 406 0 679 -0 15 429 1126 0 56 425 0 0 17 62 0
 429 680 678 60 679 283 0 681 +0 17 56 0 429 678 680 54 682 418 0 683 +0 17 679
 0 439 677 681 57 62 283 0 0 -0 15 439 1124 0 684 422 0 0 17 677 0 439 684 679 5
2 59 409 0 0 -0 17 681 0 439 679 684 60 71 401 0 405 -0 17 684 0 439 681 677 69
 676 685 0 0 +0 17 71 0 445 68 405 69 681 401 0 686 +0 17 405 0 445 71 65 60 680
 403 0 0 +0 17 65 0 445 405 68 63 687 399 0 682 +0 17 680 0 429 56 62 63 405 403
 0 0 -0 17 68 0 445 65 71 66 686 397 0 688 +0 17 687 0 434 442 682 66 65 399 0 0
 -0 17 682 0 434 687 683 63 56 418 0 680 -0 17 683 0 434 682 442 54 51 21 0 408
 -0 16 418 1138 0 ?56 685 283 412 0 0 1 0 16 685 1135 0 ?684 16 418 17 0 0 1 0 1
6 16 1132 0 ?442 285 685 6 0 0 1 0 31 17 1154 0 685 412 6 0 +.0107696 .002286 .0
039116 1 0 0 0 0 -1 508e-6 0 17 442 0 434 683 687 49 688 16 0 0 +0 17 688 0 441
 686 689 66 442 16 0 687 -0 15 441 1120 0 676 14 0 0 17 686 0 441 676 688 69 68
 397 0 684 -0 17 689 0 441 688 676 49 20 9 0 442 -0 17 676 0 441 689 686 52 684
 685 0 677 -0 17 20 0 465 182 690 52 689 9 0 675 +0 15 465 547 0 690 460 0 0 17
 182 0 465 305 20 180 675 315 0 674 +0 17 690 0 465 20 305 49 179 313 0 689 -0 1
7 305 0 465 690 182 177 669 302 0 668 +0 17 179 0 461 308 51 177 690 313 0 305 +
0 15 461 551 0 673 457 0 0 17 308 0 461 673 179 174 668 306 0 658 +0 17 51 0 461
 179 673 49 683 21 0 690 +0 17 673 0 461 51 308 54 176 309 0 0 -0 80 1 435 0 691
 8001 0 0 0 0 3 5 0 0 0 FFFFTFTFFFFFFF2 0 81 1 447 1455 435 444 0 0 443 660 692
 0 83 3 662 0 1 0 0 83 3 692 0 1 0 0 79 15 691 SDL/TYSA_COLOUR0 81 1 516 1458 43
5 513 0 0 659 512 693 0 83 3 661 0 1 0 0 81 1 512 1459 435 508 0 0 516 507 694 0
 83 3 693 0 1 0 0 81 1 507 1460 435 504 0 0 512 503 695 0 83 3 694 0 1 0 0 81 1
 503 1461 435 499 0 0 507 498 696 0 83 3 695 0 1 0 0 81 1 498 1462 435 496 0 0 5
03 495 697 0 83 3 696 0 1 0 0 81 1 495 1463 435 492 0 0 498 491 698 0 83 3 697 0
 1 0 0 81 1 491 1464 435 488 0 0 495 487 699 0 83 3 698 0 1 0 0 81 1 487 1465 43
5 484 0 0 491 483 700 0 83 3 699 0 1 0 0 81 1 483 1466 435 480 0 0 487 479 701 0
 83 3 700 0 1 0 0 81 1 479 1467 435 476 0 0 483 475 702 0 83 3 701 0 1 0 0 81 1
 475 1468 435 472 0 0 479 471 703 0 83 3 702 0 1 0 0 81 1 471 1469 435 468 0 0 4
75 467 704 0 83 3 703 0 1 0 0 81 1 467 1470 435 464 0 0 471 463 705 0 83 3 704 0
 1 0 0 81 1 463 1471 435 460 0 0 467 459 706 0 83 3 705 0 1 0 0 81 1 459 1472 43
5 457 0 0 463 707 708 0 83 3 706 0 1 0 0 81 1 707 1473 435 455 0 0 459 709 710 0
 83 3 708 0 1 0 0 14 455 633 707 ?711 457 712 4 453 -0 0 711 457 19 0 81 1 709 1
474 435 711 0 0 707 713 714 0 83 3 710 0 1 0 0 14 711 638 709 ?715 455 716 4 456
 +0 0 715 455 19 0 81 1 713 1475 435 715 0 0 709 717 718 0 83 3 714 0 1 0 0 14 7
15 682 713 ?521 711 719 4 720 -0 0 521 711 19 0 81 1 717 1476 435 521 0 0 713 51
9 721 0 83 3 718 0 1 0 0 14 521 733 717 ?517 715 722 4 723 -0 0 517 715 19 0 81
 1 519 1477 435 517 0 0 717 524 724 0 83 3 721 0 1 0 0 81 1 524 1478 435 520 0 0
 519 527 725 0 83 3 724 0 1 0 0 81 1 527 1479 435 525 0 0 524 529 726 0 83 3 725
 0 1 0 0 83 3 726 0 1 0 0 15 722 731 0 287 521 727 0 51 723 748 0 521 728 720 0
 +.02630297 0 -.0222858 0 0 1 .0010795 1 0 0 0 51 728 1370 0 428 729 723 0 -.030
5435 635e-6 -.01652282960533305 -1 612323399573677e-31 -612323399573677e-31 254e
-6 -612323399573677e-31 0 1 0 51 720 697 0 715 723 456 0 +-.00369697 0 -.0222858
 0 0 1 .0010795 1 0 0 0 50 456 650 0 711 720 453 0 +.016764 0 .0074676 0 0 1 1 0
 0 0 14 428 1328 730 ?226 425 731 4 728 +0 0 226 425 19 0 51 729 1371 0 226 732
 728 0 -.0305435 .00127 -.017145 -1 612323399573677e-31 -612323399573677e-31 635
e-6 -612323399573677e-31 0 1 0 14 226 1332 733 ?214 428 220 4 729 -0 0 214 428 1
9 0 51 732 1372 0 214 734 729 0 +.0305435 635e-6 -.0177671703946669 -1 612323399
573677e-31 -612323399573677e-31 254e-6 -612323399573677e-31 0 1 0 14 214 1336 73
5 ?736 226 209 4 732 -0 0 736 226 19 0 51 734 1373 0 736 737 732 0 +.0305435 -76
8700568242587e-33 -.017145 -1 612323399573677e-31 -612323399573677e-31 635e-6 -6
12323399573677e-31 0 1 0 14 736 1340 738 ?739 214 740 4 734 +0 0 739 214 19 0 51
 737 1374 0 739 741 734 0 +.0305435 -635e-6 -.0177671703946669 -1 61232339957367
7e-31 -612323399573677e-31 254e-6 -612323399573677e-31 0 1 0 14 739 1344 742 ?74
3 736 744 4 737 -0 0 743 736 19 0 51 741 1375 0 743 745 737 0 -.0305435 -.00127
 -.017145 -1 612323399573677e-31 -612323399573677e-31 635e-6 -612323399573677e-3
1 0 1 0 14 743 1348 746 ?747 739 748 4 741 -0 0 747 739 19 0 51 745 1376 0 747 7
49 741 0 -.0305435 -635e-6 -.0165228296053331 -1 612323399573677e-31 -6123233995
73677e-31 254e-6 -612323399573677e-31 0 1 0 14 747 1352 750 ?751 743 752 4 745 +
0 0 751 743 19 0 51 749 1377 0 751 753 745 0 -.0305435 -46026673421391e-32 -.017
145 -1 612323399573677e-31 -612323399573677e-31 635e-6 -612323399573677e-31 0 1
 0 14 751 1356 754 ?232 747 755 4 749 -0 0 232 747 19 0 50 753 1379 0 232 0 749
 0 +.0305435 9525e-7 -.01683391480266655 1 -612323399573677e-31 612323399573677e
-31 612323399573677e-31 0 -1 0 14 232 1360 756 ?0 751 227 4 753 +0 0 0 751 19 0
 81 1 756 1493 435 232 0 0 754 0 757 0 81 1 754 1492 435 751 0 0 750 756 758 0 8
3 3 757 0 1 0 0 81 1 750 1491 435 747 0 0 746 754 759 0 83 3 758 0 1 0 0 81 1 74
6 1490 435 743 0 0 742 750 760 0 83 3 759 0 1 0 0 81 1 742 1489 435 739 0 0 738
 746 761 0 83 3 760 0 1 0 0 81 1 738 1488 435 736 0 0 735 742 762 0 83 3 761 0 1
 0 0 81 1 735 1487 435 214 0 0 733 738 763 0 83 3 762 0 1 0 0 81 1 733 1486 435
 226 0 0 730 735 764 0 83 3 763 0 1 0 0 81 1 730 1485 435 428 0 0 427 733 765 0
 83 3 764 0 1 0 0 81 1 427 1484 435 425 0 0 437 730 766 0 83 3 765 0 1 0 0 81 1
 437 1483 435 422 0 0 433 427 767 0 83 3 766 0 1 0 0 83 3 767 0 1 0 0 15 755 135
9 0 266 751 0 0 17 266 0 755 192 269 184 27 252 0 0 +0 17 192 0 755 768 266 190
 272 270 0 246 -0 17 269 0 755 266 768 47 189 250 0 28 +0 17 27 0 25 23 186 47 2
66 252 0 269 -0 15 25 1204 0 27 513 626 0 17 186 0 25 27 46 184 769 263 0 272 +0
 17 46 0 25 186 43 44 262 260 0 275 -0 17 769 0 752 195 272 44 186 263 0 0 -0 17
 272 0 752 769 246 184 192 270 0 266 +0 15 752 1355 0 769 747 0 0 17 246 0 752 2
72 195 190 770 244 0 249 +0 17 195 0 752 246 769 193 275 273 0 771 -0 17 770 0 2
27 243 249 193 246 244 0 0 -0 17 249 0 227 770 228 190 768 247 0 0 +0 17 228 0 2
27 249 224 183 229 230 0 0 -0 17 768 0 755 269 192 183 249 247 0 228 -0 17 229 0
 731 30 189 205 228 230 0 0 +0 15 731 1331 0 28 428 0 0 17 30 0 731 28 229 10 20
7 221 0 33 +0 17 189 0 731 229 28 183 269 250 0 768 -0 17 28 0 731 189 30 47 23
 29 0 0 -0 17 33 0 220 207 35 10 26 34 0 0 +0 17 243 0 227 233 770 196 771 241 0
 0 +0 17 233 0 227 218 243 199 772 237 0 0 +0 17 771 0 748 275 198 193 243 241 0
 770 -0 15 748 1351 0 262 743 0 0 17 275 0 748 262 771 44 195 273 0 769 +0 17 19
8 0 748 771 262 196 278 276 0 772 -0 17 262 0 748 198 275 41 46 260 0 0 +0 17 27
8 0 744 259 772 41 198 276 0 262 +0 17 772 0 744 278 201 196 233 237 0 243 -0 15
 744 1347 0 259 739 0 0 17 201 0 744 772 259 199 281 279 0 234 -0 17 259 0 744 2
01 278 36 43 257 0 0 +0 17 281 0 740 773 234 36 201 279 0 259 +0 17 234 0 740 28
1 204 199 218 235 0 233 +0 15 740 1343 0 773 736 0 0 17 204 0 740 234 773 202 21
5 222 0 210 -0 17 773 0 740 204 281 31 40 255 0 0 -0 17 215 0 209 211 210 31 204
 222 0 773 +0 17 40 0 25 43 32 36 773 255 0 281 +0 17 43 0 25 46 40 41 259 257 0
 278 -0 17 32 0 25 40 26 31 211 219 0 215 -0 17 287 0 722 287 287 0 774 285 0 0
 +0 15 727 732 0 775 521 0 0 17 775 0 727 775 775 0 360 288 0 0 -0 17 360 0 481
 360 360 0 775 288 0 0 +0 15 481 709 0 360 476 610 0 17 774 0 485 774 774 0 287
 285 0 0 -0 15 485 716 0 774 480 617 0 15 719 680 0 291 715 776 0 17 291 0 719 2
91 291 0 777 289 0 0 +0 15 776 681 0 778 715 0 0 17 778 0 776 778 778 0 294 292
 0 0 -0 17 294 0 497 294 294 0 778 292 0 0 +0 15 497 665 0 294 492 648 0 17 777
 0 493 777 777 0 291 289 0 0 -0 15 493 660 0 777 488 535 0 15 716 641 0 297 711
 0 0 17 297 0 716 297 297 0 779 295 0 0 +0 17 779 0 780 779 779 0 297 295 0 0 -0
 15 780 637 0 779 455 0 0 15 712 636 0 781 455 780 0 17 781 0 712 781 781 0 358
 298 0 0 -0 17 358 0 452 358 358 0 781 298 0 0 +0 15 452 615 0 358 12 0 0 141 60
5 604 605 605 603 0 141 580 639 782 782 578 0 141 782 637 580 580 578 0 141 554
 550 554 554 552 0 81 1 436 1481 435 14 0 0 529 433 783 0 83 3 531 0 1 0 0 83 3
 783 0 1 0 0 83 3 448 0 1 0 0 83 3 438 0 1 0 0 141 424 411 424 424 413 0 40 6 41
9 0 1 6 3302557682144385e-20 .3466901948437545 ??.01163345149131206 -.002794 .00
39116 .01164703456937432 -.002771166538421645 .004062190271916735 .0116852121106
7926 -.002707313389880425 .00419542922243396 .01174577604157444 -.00260699929411
358 .00430533017814054 .01183105834683606 -.002467783686601025 .0043859613509612
05 .01194215441592026 -.00229000833927088 .00441958418599312 0 41 1 420 L.011633
45149131206 -.002794 .0039116 0 41 2 421 T.0119446888459034 -.002286 .0044196 .0
1194215441592026 -.00229000833927088 .00441958418599312 0 141 323 347 323 323 32
0 0 19 13 77 0 1 0 8 4 S0 74 20 11 1 0 0 756 0 0 0 0 0 0 0 0 0 0 0 0 0 0 0 0 0 0
 0 0 1 0 
